PathFileType	4	(X/Y/Z)	C:\Users\Basilio\Documents\Thesis Gigler\squatting_fais\c3dfiles\039\SLS_pre_back4\markers_experimental.trc
DataRate	CameraRate	NumFrames	NumMarkers	Units	OrigDataRate	OrigDataStartFrame	OrigNumFrames
200.000000	200.000000	4	64	mm	200.000000	533	2133
Frame#	Time	FHD			LBHD			RBHD			C7			T10			CLAV			LSHO			LUUPA			LMUPA			LDUPA			LLEP			LMEP			LRAD			LUL			LRFIN			RSHO			RUPA1			RMUPA			RDUPA			RLEP			RMEP			RRAD			RUL			RUFIN			LASI			RASI			USACR			LSACR			RSACR			LTHI1			LTHI2			LTHI3			LTHI4			LLFC			LMFC			LTIB1			LTIB2			LTIB3			LTIB4			LLMAL			LMMAL			LHEE			LMT1			LMT2			LMT5			RTHI			RTHI2			RTHI3			RTHI4			RLFC			RMFC			RTIB1			RTIB2			RTIB3			RTIB4			RLMAL			RMMAL			RHEE			RMT1			RMT2			RMT5			*61			*62			*63			
		X1	Y1	Z1	X2	Y2	Z2	X3	Y3	Z3	X4	Y4	Z4	X5	Y5	Z5	X6	Y6	Z6	X7	Y7	Z7	X8	Y8	Z8	X9	Y9	Z9	X10	Y10	Z10	X11	Y11	Z11	X12	Y12	Z12	X13	Y13	Z13	X14	Y14	Z14	X15	Y15	Z15	X16	Y16	Z16	X17	Y17	Z17	X18	Y18	Z18	X19	Y19	Z19	X20	Y20	Z20	X21	Y21	Z21	X22	Y22	Z22	X23	Y23	Z23	X24	Y24	Z24	X25	Y25	Z25	X26	Y26	Z26	X27	Y27	Z27	X28	Y28	Z28	X29	Y29	Z29	X30	Y30	Z30	X31	Y31	Z31	X32	Y32	Z32	X33	Y33	Z33	X34	Y34	Z34	X35	Y35	Z35	X36	Y36	Z36	X37	Y37	Z37	X38	Y38	Z38	X39	Y39	Z39	X40	Y40	Z40	X41	Y41	Z41	X42	Y42	Z42	X43	Y43	Z43	X44	Y44	Z44	X45	Y45	Z45	X46	Y46	Z46	X47	Y47	Z47	X48	Y48	Z48	X49	Y49	Z49	X50	Y50	Z50	X51	Y51	Z51	X52	Y52	Z52	X53	Y53	Z53	X54	Y54	Z54	X55	Y55	Z55	X56	Y56	Z56	X57	Y57	Z57	X58	Y58	Z58	X59	Y59	Z59	X60	Y60	Z60	X61	Y61	Z61	X62	Y62	Z62	X63	Y63	Z63	X64	Y64	Z64	

534	2.665	-218.3119659423829	1767.40771484375	-672.3222656250001	-380.2163391113282	1759.438842773438	-791.9527587890627	-350.7202148437501	1757.361450195313	-652.8319091796876	-433.359100341797	1590.6240234375	-739.3634033203126	-449.749969482422	1280.953125	-776.8395996093752	nan	nan	nan	-361.5153503417969	1614.405639648438	-891.4175415039065	-196.8260040283204	1581.04736328125	-1007.778686523438	-173.9932250976563	1613.878173828125	-978.143981933594	-127.98974609375	1592.931396484375	-1010.290893554688	-61.0991897583008	1603.553344726563	-1007.957641601563	-53.8063430786133	1531.375366210938	-976.6113891601565	214.087875366211	1641.57080078125	-911.8626708984377	216.2218627929688	1651.28125	-987.343933105469	287.0184936523438	1688.218383789063	-899.8370361328127	-324.4934082031251	1592.61376953125	-586.1920166015626	-161.7388763427735	1532.8115234375	-484.752899169922	-135.9835968017578	1568.509033203125	-510.0698852539064	-92.4516067504883	1533.4619140625	-486.6047668457032	-31.19275093078614	1550.560668945313	-495.531951904297	-22.09536743164063	1484.754028320313	-536.4274291992189	254.8379058837891	1611.92724609375	-566.5012817382814	255.5590515136719	1598.4482421875	-492.0164794921876	332.3683776855469	1660.282104492188	-558.4894409179689	-281.3665466308594	1105.162353515625	-912.2205810546877	-268.8440551757813	1081.921997070313	-687.2673339843751	-458.424530029297	1149.546630859375	-785.1589355468752	-462.5119628906251	1119.76904296875	-815.8029785156252	-458.6092224121095	1114.732055664063	-756.4561157226564	-285.4129333496094	840.1459960937502	-1022.0595703125	-231.5828704833985	775.7642211914065	-1037.006713867188	-185.8163299560547	789.6182250976565	-1029.097534179688	-242.1834869384766	715.7890625000001	-1033.3466796875	-213.7630157470704	609.8928833007814	-1040.611572265625	-174.8799743652344	567.1267089843751	-938.3460083007815	-191.8784484863282	456.9476623535157	-1050.168334960938	-272.5087280273438	441.9450988769532	-1082.565551757813	-233.6051330566407	424.6046142578126	-1074.136840820313	-250.157211303711	342.3636169433594	-1045.399536132813	-362.8026733398438	200.1781463623047	-1085.30322265625	-331.2980041503907	186.6655883789063	-1004.573852539063	-435.3065490722657	163.2877044677735	-1039.17138671875	-211.6946411132813	95.49637603759767	-1052.056762695313	-222.7747650146485	98.64516448974612	-1094.374145507813	-277.6306457519532	89.52473449707033	-1137.92578125	-300.9157104492188	808.8057861328127	-637.6362915039064	-255.4942474365235	758.9013671875001	-639.0996093750001	-224.6148834228516	766.0197143554689	-646.7037963867189	-275.7046508789063	676.7506713867189	-656.3665771484376	-299.2686767578126	537.6582641601564	-690.1289672851564	-266.3589477539063	538.0491943359376	-805.4849243164065	-270.0523071289063	326.3460388183594	-722.6140136718751	-359.0578002929688	265.2656860351563	-718.3983154296876	-314.0864562988282	253.4942626953126	-719.5095825195314	-298.6293334960938	208.0690002441407	-756.0269775390626	-371.5148925781251	118.4721298217774	-739.8753051757814	-340.7595520019532	138.0710144042969	-823.3385009765627	-439.8048706054689	97.94425964355472	-793.7571411132815	-214.6746215820313	54.10953521728517	-805.085632324219	-219.1853179931641	54.35693740844728	-759.0214233398439	-274.0498046875001	34.68751525878907	-707.2381591796876	nan	nan	nan	nan	nan	nan	nan	nan	nan	
535	2.67	-218.6757354736329	1767.117065429688	-672.1116943359376	-379.3006591796876	1759.1904296875	-790.9467773437502	-350.7723999023438	1757.473876953125	-652.3185424804689	-433.5036010742189	1590.555053710938	-738.7125244140626	-450.9185791015626	1280.713134765625	-776.9492187500002	nan	nan	nan	-361.2084655761719	1614.314086914063	-890.6245727539065	-197.0311279296876	1581.1328125	-1007.3408203125	-174.1440124511719	1613.814086914063	-977.6492309570315	-128.1976470947266	1592.969970703125	-1009.780334472656	-61.25630187988283	1603.476684570313	-1007.395141601563	-53.85340881347658	1531.381469726563	-976.2129516601565	214.0364837646485	1641.290649414063	-911.4024658203127	216.5373992919922	1650.881225585938	-986.9751586914065	286.9426879882813	1688.110717773438	-899.450866699219	-324.7380371093751	1592.531127929688	-585.6721801757814	-161.7198944091797	1532.70751953125	-484.4688415527345	-136.0962677001953	1568.357177734375	-509.8016357421876	-92.60508728027345	1533.289306640625	-486.1910705566407	-31.21247673034669	1550.440185546875	-495.2141113281251	-22.18870162963868	1484.6474609375	-536.1608276367189	254.7244262695313	1611.917114257813	-566.2764282226564	255.5135650634766	1598.367919921875	-491.7988891601564	332.2381286621094	1660.282348632813	-558.3297729492189	-281.6734924316407	1105.19091796875	-911.8228759765627	-269.1176147460938	1081.970581054688	-686.9288330078126	-458.6730041503907	1149.597412109375	-784.799011230469	-462.8234863281251	1119.784545898438	-815.3287353515627	-458.6662902832032	1114.66552734375	-756.1260986328126	-284.7232055664063	840.0295410156252	-1021.6865234375	-230.4947509765626	776.3690185546877	-1036.567260742188	-184.7540283203125	790.0800781250002	-1028.491577148438	-240.8455963134766	716.2249755859376	-1032.846801757813	-212.3195190429688	610.7435302734376	-1039.950439453125	-172.9660034179688	568.1484985351564	-937.4888305664065	-191.7715606689453	457.7829895019532	-1049.463256835938	-272.9559936523438	443.7468566894532	-1081.388793945313	-233.9764404296876	426.1465148925782	-1073.146606445313	-251.4416809082032	343.9681396484376	-1044.116943359375	-365.9231262207032	202.7764587402344	-1083.412475585938	-334.3329162597657	189.2259368896485	-1002.669860839844	-438.4021911621095	166.8620147705078	-1036.685791015625	-215.3442687988282	97.04427337646487	-1050.614624023438	-227.0652618408204	100.6539916992188	-1093.025390625	-282.1600341796876	91.28260040283205	-1136.447387695313	-301.0765686035157	808.7617797851565	-637.3919677734376	-255.6401977539063	758.9652709960939	-638.7907714843751	-224.7950286865235	766.0458374023439	-646.5095825195314	-275.6903076171876	677.0032348632814	-656.1267700195314	-299.5236511230469	537.7281494140626	-689.9557495117189	-266.4952392578126	538.0561523437501	-805.303649902344	-270.1102294921876	326.3382873535157	-722.5576782226564	-359.0672912597657	265.2238464355469	-718.3311157226564	-314.1227722167969	253.4980468750001	-719.3945922851564	-298.6122741699219	208.0625305175782	-755.9912719726564	-371.4876403808594	118.4878768920899	-739.8979492187501	-340.7384643554688	138.0891571044922	-823.3616943359377	-439.7757263183595	97.94052886962893	-793.7974853515627	-214.6642761230469	54.10832977294923	-805.083190917969	-219.1856689453126	54.3837013244629	-759.0304565429689	-274.0555114746094	34.72477340698243	-707.2169799804689	nan	nan	nan	nan	nan	nan	nan	nan	nan	
536	2.675	-218.7213745117188	1767.001220703125	-671.5440673828126	-380.1855468750001	1759.55908203125	-790.546569824219	-350.7613830566407	1757.430541992188	-651.8764648437501	-433.6662597656251	1590.6162109375	-738.2357177734376	-451.1345825195314	1280.592529296875	-776.5648193359377	nan	nan	nan	-361.4096984863282	1614.358764648438	-890.0744628906252	-197.2484130859376	1581.124633789063	-1006.786865234375	-174.3324432373047	1613.871948242188	-977.0856933593752	-128.4092559814453	1592.96826171875	-1009.251586914063	-61.41503524780275	1603.389404296875	-1006.899658203125	-54.11211013793947	1531.343627929688	-975.810485839844	213.8686065673829	1641.171508789063	-910.9968261718752	215.9772644042969	1650.84130859375	-986.6026000976565	286.9082641601563	1687.837646484375	-899.0273437500002	-324.8993530273438	1592.39599609375	-585.1497192382814	-161.7859954833985	1532.627197265625	-484.2368164062501	-136.146957397461	1568.163696289063	-509.5095214843751	-92.71787261962892	1533.10888671875	-485.7400207519532	-31.18770790100098	1550.265869140625	-494.9374389648439	-22.28502082824707	1484.648803710938	-535.9383544921876	254.6281280517579	1611.88671875	-566.0858764648439	255.3887176513672	1598.290405273438	-491.5946655273439	332.1583557128907	1660.312744140625	-558.2013549804689	-282.2269287109376	1105.128784179688	-911.418640136719	-269.3885498046876	1081.998413085938	-686.6082153320314	-458.952606201172	1149.6103515625	-784.3732910156252	-463.0896301269532	1119.772216796875	-814.8961181640627	-458.8019104003907	1114.631225585938	-755.5761108398439	-283.9844055175782	840.738464355469	-1021.366455078125	-229.4253387451172	776.826354980469	-1036.16796875	-183.6788787841797	790.6616821289065	-1028.04833984375	-239.5458221435547	716.6888427734376	-1032.474243164063	-210.7007141113282	611.5386962890626	-1039.177490234375	-172.1792144775391	568.7319335937501	-937.247985839844	-191.8541564941407	458.6975402832032	-1048.65380859375	-273.0708923339844	445.7278442382814	-1080.267456054688	-234.7053833007813	426.7042541503907	-1072.204711914063	-252.8252105712891	345.8463745117188	-1042.6181640625	-369.2037353515626	205.7046508789063	-1081.309692382813	-337.4902954101563	191.8172607421875	-1000.635864257813	-442.4006652832032	170.4045867919922	-1034.375732421875	-219.0224609375001	98.9194259643555	-1049.14697265625	-231.1153564453126	102.5412673950196	-1091.500610351563	-286.6445007324219	94.29556274414064	-1134.652221679688	-301.2819824218751	808.5985107421877	-637.0823364257814	-255.8652496337891	758.8869018554689	-638.6091308593751	-224.9724884033204	765.9423217773439	-646.2987670898439	-275.8155517578126	676.9694213867189	-655.9310913085939	-299.8252258300782	537.4096679687501	-689.9288330078126	-266.5878601074219	538.1118164062501	-805.158630371094	-270.1732788085938	326.3976135253907	-722.5017089843751	-359.1773681640626	265.0784606933594	-718.4135742187501	-314.0072937011719	253.6536102294922	-718.9464111328126	-298.6882019042969	208.0475311279297	-755.9411621093751	-371.5095825195313	118.4679565429688	-739.8703002929689	-340.7624206542969	138.0576934814453	-823.3752441406252	-439.8048400878907	97.91946411132815	-793.8132934570315	-214.6761016845704	54.12319183349611	-805.0858154296877	-219.2064361572266	54.33324432373048	-759.0274658203126	-274.0428161621094	34.6949806213379	-707.2171020507814	nan	nan	nan	nan	nan	nan	nan	nan	nan	
537	2.68	-218.5659790039063	1766.847412109375	-670.8876342773439	-379.9628906250001	1759.56103515625	-790.046081542969	-350.9419250488282	1757.606079101563	-651.4472045898439	-433.7940063476564	1590.656372070313	-737.7290039062501	-451.3165588378907	1280.617431640625	-776.1411132812502	nan	nan	nan	-362.0993652343751	1614.47607421875	-889.7908325195315	-197.5416107177735	1581.079833984375	-1006.272705078125	-174.4683685302735	1613.857421875	-976.6330566406252	-128.568115234375	1592.911499023438	-1008.808410644531	-61.66500091552736	1603.30126953125	-1006.449645996094	-54.59710693359376	1531.250732421875	-975.101013183594	213.7307739257813	1641.03857421875	-910.7113037109377	215.7690734863282	1650.661987304688	-986.219665527344	286.7679443359376	1687.630249023438	-898.625427246094	-324.6625976562501	1592.1435546875	-584.8043823242189	-161.8298492431641	1532.456665039063	-483.9595947265626	-136.1740264892578	1567.998657226563	-509.2389526367189	-92.81990051269533	1532.9755859375	-485.3238525390626	-31.20522117614747	1550.170043945313	-494.651824951172	-22.34006500244141	1484.467407226563	-535.6727294921876	254.5381317138672	1611.834838867188	-565.8649902343751	255.3177337646485	1598.226806640625	-491.4313049316407	332.0473022460938	1660.3046875	-558.0196533203126	-282.5477905273438	1105.214965820313	-911.0679321289065	-269.5819091796876	1082.123046875	-686.3528442382814	-459.1450805664064	1149.630737304688	-783.9687500000002	-463.3208923339845	1119.802001953125	-814.4367675781252	-458.9690856933595	1114.7158203125	-755.0401611328126	-283.1286926269532	840.9375610351565	-1020.958984375	-228.4456024169922	777.407897949219	-1035.698364257813	-182.6719360351563	791.194519042969	-1027.599975585938	-238.3547973632813	717.2553100585939	-1032.00537109375	-209.3337707519532	612.4270019531251	-1038.195556640625	-170.2645111083985	569.7375488281251	-936.1442871093752	-191.8625793457032	459.7495422363282	-1047.777221679688	-273.8410644531251	447.1283569335939	-1079.151245117188	-235.0773468017579	428.7707519531251	-1070.98681640625	-254.0069427490235	347.2634887695313	-1041.64892578125	-372.4692077636719	208.6411743164063	-1079.33544921875	-340.6744689941407	194.5558166503907	-998.6596679687502	-445.608612060547	174.4463653564453	-1031.925170898438	-222.9062652587891	101.4592361450196	-1047.51416015625	-235.4323120117188	104.224723815918	-1089.97021484375	-291.3169860839844	96.44918060302737	-1132.948486328125	-301.5068664550782	808.611755371094	-636.7603759765626	-256.0459594726563	758.9018554687501	-638.2515258789064	-225.1568603515626	765.9327392578126	-646.1406860351564	-275.9670410156251	676.9302368164064	-655.7219848632814	-300.0678405761719	537.4461669921876	-689.7338867187501	-266.8035583496094	538.1737060546876	-805.0213623046877	-270.1675720214844	326.3969421386719	-722.4685668945314	-359.2716979980469	265.1499328613282	-718.4337768554689	-314.0760192871094	253.689682006836	-718.8921508789064	-298.6762695312501	208.0472869873047	-755.9436645507814	-371.4637145996094	118.4387130737305	-739.9031372070314	-340.7890625000001	138.0704193115235	-823.3635864257815	-439.803436279297	97.92669677734378	-793.815124511719	-214.6009063720704	53.99578857421876	-805.0480957031252	-219.1762847900391	54.33031463623048	-759.0535888671876	-274.0698242187501	34.67597579956055	-707.2448120117189	nan	nan	nan	nan	nan	nan	nan	nan	nan	
